<?xml version="1.0" standalone="no"?>
<svg xmlns:xlink="http://www.w3.org/1999/xlink" id="wave" style="transform:rotate(180deg); transition: 0.3s" viewBox="0 0 1440 320" version="1.1" xmlns="http://www.w3.org/2000/svg"><defs><linearGradient id="sw-gradient-0" x1="0" x2="0" y1="1" y2="0"><stop stop-color="rgba(251, 146, 60, 1)" offset="0%"/><stop stop-color="rgba(255, 179, 11, 1)" offset="100%"/></linearGradient></defs><path style="transform:translate(0, 0px); opacity:1" fill="url(#sw-gradient-0)" d="M0,192L48,176C96,160,192,128,288,144C384,160,480,224,576,256C672,288,768,288,864,250.7C960,213,1056,139,1152,133.3C1248,128,1344,192,1440,197.3C1536,203,1632,149,1728,138.7C1824,128,1920,160,2016,165.3C2112,171,2208,149,2304,138.7C2400,128,2496,128,2592,149.3C2688,171,2784,213,2880,229.3C2976,245,3072,235,3168,240C3264,245,3360,267,3456,256C3552,245,3648,203,3744,202.7C3840,203,3936,245,4032,250.7C4128,256,4224,224,4320,202.7C4416,181,4512,171,4608,144C4704,117,4800,75,4896,90.7C4992,107,5088,181,5184,192C5280,203,5376,149,5472,117.3C5568,85,5664,75,5760,74.7C5856,75,5952,85,6048,90.7C6144,96,6240,96,6336,117.3C6432,139,6528,181,6624,208C6720,235,6816,245,6864,250.7L6912,256L6912,320L6864,320C6816,320,6720,320,6624,320C6528,320,6432,320,6336,320C6240,320,6144,320,6048,320C5952,320,5856,320,5760,320C5664,320,5568,320,5472,320C5376,320,5280,320,5184,320C5088,320,4992,320,4896,320C4800,320,4704,320,4608,320C4512,320,4416,320,4320,320C4224,320,4128,320,4032,320C3936,320,3840,320,3744,320C3648,320,3552,320,3456,320C3360,320,3264,320,3168,320C3072,320,2976,320,2880,320C2784,320,2688,320,2592,320C2496,320,2400,320,2304,320C2208,320,2112,320,2016,320C1920,320,1824,320,1728,320C1632,320,1536,320,1440,320C1344,320,1248,320,1152,320C1056,320,960,320,864,320C768,320,672,320,576,320C480,320,384,320,288,320C192,320,96,320,48,320L0,320Z"/></svg>